<svg xmlns="http://www.w3.org/2000/svg" xmlns:xlink="http://www.w3.org/1999/xlink" width="500" zoomAndPan="magnify" viewBox="0 0 375 374.999991" height="500" preserveAspectRatio="xMidYMid meet" version="1.0"><defs><clipPath id="6233103846"><path d="M 110.300781 110.300781 L 264.699219 110.300781 L 264.699219 264.699219 L 110.300781 264.699219 Z M 110.300781 110.300781 " clip-rule="nonzero"/></clipPath><clipPath id="49016e17cb"><path d="M 187.5 110.300781 C 144.863281 110.300781 110.300781 144.863281 110.300781 187.5 C 110.300781 230.136719 144.863281 264.699219 187.5 264.699219 C 230.136719 264.699219 264.699219 230.136719 264.699219 187.5 C 264.699219 144.863281 230.136719 110.300781 187.5 110.300781 " clip-rule="nonzero"/></clipPath><clipPath id="63ab7bee98"><path d="M 109.199219 108.101562 L 265.949219 108.101562 L 265.949219 264.851562 L 109.199219 264.851562 Z M 109.199219 108.101562 " clip-rule="nonzero"/></clipPath><clipPath id="a4e7065a9f"><path d="M 187 61 L 306.882812 61 L 306.882812 314.691406 L 187 314.691406 Z M 187 61 " clip-rule="nonzero"/></clipPath><clipPath id="1f078d2b70"><path d="M 68.382812 61 L 188 61 L 188 314.691406 L 68.382812 314.691406 Z M 68.382812 61 " clip-rule="nonzero"/></clipPath><clipPath id="78444bed4e"><path d="M 204 187.5 L 234 187.5 L 234 240.75 L 204 240.75 Z M 204 187.5 " clip-rule="nonzero"/></clipPath><clipPath id="8e4b82ba94"><path d="M 203.578125 187.5 L 234.328125 187.5 L 234.328125 240.75 L 203.578125 240.75 Z M 203.578125 187.5 " clip-rule="nonzero"/></clipPath><clipPath id="88c9739e66"><path d="M 141.375 187.5 L 171.84375 187.5 L 171.84375 240.75 L 141.375 240.75 Z M 141.375 187.5 " clip-rule="nonzero"/></clipPath><clipPath id="56a44c2e02"><path d="M 7 104 L 139 104 L 139 223 L 7 223 Z M 7 104 " clip-rule="nonzero"/></clipPath><clipPath id="7fdddba039"><path d="M -20.011719 130.070312 L 54.777344 60.710938 L 156.777344 170.695312 L 81.988281 240.054688 Z M -20.011719 130.070312 " clip-rule="nonzero"/></clipPath><clipPath id="748697cd59"><path d="M -20.011719 130.070312 L 54.777344 60.710938 L 156.777344 170.695312 L 81.988281 240.054688 Z M -20.011719 130.070312 " clip-rule="nonzero"/></clipPath><clipPath id="8a0ed971c2"><path d="M 236 102 L 368 102 L 368 223 L 236 223 Z M 236 102 " clip-rule="nonzero"/></clipPath><clipPath id="5db419e51c"><path d="M 318.308594 60.171875 L 394.558594 127.917969 L 294.929688 240.054688 L 218.675781 172.304688 Z M 318.308594 60.171875 " clip-rule="nonzero"/></clipPath><clipPath id="cf181a6214"><path d="M 394.558594 127.917969 L 318.308594 60.171875 L 218.675781 172.304688 L 294.929688 240.054688 Z M 394.558594 127.917969 " clip-rule="nonzero"/></clipPath></defs><g clip-path="url(#6233103846)"><g clip-path="url(#49016e17cb)"><path fill="#282828" d="M 110.300781 110.300781 L 264.699219 110.300781 L 264.699219 264.699219 L 110.300781 264.699219 Z M 110.300781 110.300781 " fill-opacity="1" fill-rule="nonzero"/></g></g><g clip-path="url(#63ab7bee98)"><path fill="#f0f0f0" d="M 187.574219 264.851562 C 144.273438 264.851562 109.199219 229.53125 109.199219 186.476562 C 109.199219 143.417969 144.273438 108.101562 187.574219 108.101562 C 230.875 108.101562 265.949219 143.175781 265.949219 186.476562 C 265.949219 229.773438 230.632812 264.851562 187.574219 264.851562 Z M 187.574219 112.9375 C 146.9375 112.9375 114.039062 145.835938 114.039062 186.476562 C 114.039062 227.113281 146.9375 260.011719 187.574219 260.011719 C 228.214844 260.011719 261.113281 227.113281 261.113281 186.476562 C 261.113281 145.835938 227.972656 112.9375 187.574219 112.9375 Z M 187.574219 112.9375 " fill-opacity="1" fill-rule="nonzero"/></g><g clip-path="url(#a4e7065a9f)"><path fill="#ffcc00" d="M 306.886719 61.945312 C 306.886719 61.945312 284.226562 60.445312 261.546875 81.035156 C 245.800781 95.328125 243.019531 111.25 235.628906 112 C 225.605469 113.023438 213.617188 87.902344 218.125 79.328125 C 218.125 79.328125 207.941406 82.21875 211.886719 104.589844 C 214.09375 117.089844 218.921875 130.179688 210.511719 141.101562 C 187.644531 170.792969 187.644531 193.027344 187.644531 193.027344 L 187.644531 314.695312 C 187.644531 314.695312 201.367188 309.101562 214.355469 286.609375 C 204.726562 294.328125 194.148438 297.941406 194.148438 297.941406 C 195.957031 296.742188 203.832031 292.089844 206.308594 286.320312 C 208.046875 282.261719 207.71875 278.160156 207.605469 272.972656 C 212.035156 268.339844 216.488281 262.839844 220.488281 256.371094 C 233.960938 234.582031 251.28125 230.507812 266.25 235.53125 C 266.25 235.53125 239.644531 218.480469 212.125 257.28125 C 210.8125 259.128906 209.457031 260.863281 208.082031 262.503906 C 208.449219 259.78125 209.058594 256.789062 210.0625 253.453125 C 221.261719 216.304688 276.796875 218.09375 260.226562 155.871094 C 260.226562 155.871094 260.109375 188.058594 218.574219 214.960938 C 191.851562 232.265625 197.074219 257.035156 197.074219 257.035156 C 197.074219 257.035156 181.101562 217.347656 231.5625 177.804688 C 248.621094 164.441406 253.140625 151.90625 251.046875 140.441406 C 245.707031 111.175781 280.417969 70.738281 306.886719 61.945312 " fill-opacity="1" fill-rule="nonzero"/></g><g clip-path="url(#1f078d2b70)"><path fill="#6a5acd" d="M 68.402344 61.945312 C 68.402344 61.945312 91.0625 60.445312 113.742188 81.035156 C 129.484375 95.328125 132.265625 111.25 139.660156 112 C 149.683594 113.023438 161.671875 87.902344 157.164062 79.328125 C 157.164062 79.328125 167.34375 82.21875 163.398438 104.589844 C 161.195312 117.089844 156.367188 130.179688 164.777344 141.101562 C 187.644531 170.792969 187.644531 193.027344 187.644531 193.027344 L 187.644531 314.695312 C 187.644531 314.695312 173.921875 309.101562 160.933594 286.609375 C 170.5625 294.328125 181.140625 297.941406 181.140625 297.941406 C 179.332031 296.742188 171.457031 292.089844 168.980469 286.320312 C 167.238281 282.261719 167.566406 278.160156 167.683594 272.972656 C 163.253906 268.339844 158.800781 262.839844 154.800781 256.371094 C 141.328125 234.582031 124.007812 230.507812 109.039062 235.53125 C 109.039062 235.53125 135.644531 218.480469 163.164062 257.28125 C 164.476562 259.128906 165.832031 260.863281 167.203125 262.503906 C 166.835938 259.78125 166.230469 256.789062 165.222656 253.453125 C 154.027344 216.304688 98.488281 218.09375 115.0625 155.871094 C 115.0625 155.871094 115.179688 188.058594 156.714844 214.960938 C 183.4375 232.265625 178.214844 257.035156 178.214844 257.035156 C 178.214844 257.035156 194.1875 217.347656 143.726562 177.804688 C 126.667969 164.441406 122.148438 151.90625 124.238281 140.441406 C 129.578125 111.175781 94.867188 70.738281 68.402344 61.945312 " fill-opacity="1" fill-rule="nonzero"/></g><g clip-path="url(#78444bed4e)"><path fill="#6a5acd" d="M 231.742188 187.722656 C 232.546875 191.84375 230.527344 196.089844 227.585938 199.113281 C 224.640625 202.136719 220.851562 204.183594 217.207031 206.332031 C 213.5625 208.480469 209.910156 210.859375 207.484375 214.304688 C 204.671875 218.289062 203.609375 223.851562 204.824219 228.503906 C 205.988281 232.984375 208.324219 237.144531 211.453125 240.585938 C 210.289062 237.738281 211.695312 234.410156 213.871094 232.222656 C 216.050781 230.035156 218.894531 228.648438 221.457031 226.917969 C 224.023438 225.1875 226.460938 222.875 227.078125 219.863281 C 225.988281 220.050781 224.902344 220.242188 223.816406 220.429688 C 227.839844 218.175781 230.679688 213.957031 231.226562 209.414062 C 229.984375 209.789062 228.742188 210.164062 227.5 210.542969 C 230.617188 207.753906 232.773438 203.933594 233.535156 199.84375 C 234.296875 195.753906 233.65625 191.421875 231.742188 187.722656 " fill-opacity="1" fill-rule="nonzero"/></g><g clip-path="url(#8e4b82ba94)"><path stroke-linecap="butt" transform="matrix(0.00603296, 0, 0, -0.00596859, 204.297824, 240.730561)" fill="none" stroke-linejoin="miter" d="M 4549.071398 8881.149517 C 4682.453281 8190.68552 4347.703604 7479.27854 3860.147499 6972.720119 C 3371.943908 6466.161699 2743.883587 6123.220339 2139.780205 5763.262806 C 1535.676823 5403.305272 930.278472 5004.734112 528.190369 4427.493121 C 62.001264 3759.935513 -114.11462 2827.972734 87.253174 2048.501056 C 280.203664 1297.825981 667.399615 600.817302 1186.034994 24.23078 C 993.084504 501.338129 1226.179056 1058.945072 1586.828128 1425.447289 C 1948.124684 1791.949505 2419.493668 2024.285731 2844.243741 2314.215163 C 3269.641299 2604.144595 3673.671857 2991.589795 3775.974466 3496.184811 C 3595.326188 3464.770335 3415.325394 3432.701391 3235.324601 3401.286915 C 3902.234015 3778.915092 4372.955514 4485.740795 4463.603396 5246.887362 C 4257.703208 5184.05841 4051.80302 5121.229459 3845.902832 5057.746039 C 4362.595756 5525.036365 4720.007403 6165.106307 4846.266952 6850.334558 C 4972.526502 7535.562809 4866.338983 8261.36809 4549.071398 8881.149517 Z M 4549.071398 8881.149517 " stroke="#ffffff" stroke-width="10" stroke-opacity="1" stroke-miterlimit="10"/></g><g clip-path="url(#88c9739e66)"><path fill="#ffcc00" d="M 143.679688 187.722656 C 142.875 191.84375 144.894531 196.089844 147.835938 199.113281 C 150.78125 202.136719 154.570312 204.183594 158.214844 206.332031 C 161.859375 208.480469 165.511719 210.859375 167.9375 214.304688 C 170.75 218.289062 171.8125 223.851562 170.597656 228.503906 C 169.433594 232.984375 167.097656 237.144531 163.96875 240.585938 C 165.132812 237.738281 163.726562 234.410156 161.550781 232.222656 C 159.371094 230.035156 156.527344 228.648438 153.964844 226.917969 C 151.398438 225.1875 148.960938 222.875 148.34375 219.863281 C 149.433594 220.050781 150.519531 220.242188 151.605469 220.429688 C 147.582031 218.175781 144.746094 213.957031 144.195312 209.414062 C 145.4375 209.789062 146.679688 210.164062 147.921875 210.542969 C 144.804688 207.753906 142.648438 203.933594 141.886719 199.84375 C 141.125 195.753906 141.765625 191.421875 143.679688 187.722656 " fill-opacity="1" fill-rule="nonzero"/><path stroke-linecap="butt" transform="matrix(-0.00603296, 0, 0, -0.00596859, 171.12427, 240.730561)" fill="none" stroke-linejoin="miter" d="M 4549.10769 8881.149517 C 4682.489573 8190.68552 4347.739896 7479.27854 3860.183791 6972.720119 C 3371.9802 6466.161699 2743.919878 6123.220339 2139.816497 5763.262806 C 1535.713115 5403.305272 930.314764 5004.734112 528.226661 4427.493121 C 62.037556 3759.935513 -114.078328 2827.972734 87.289466 2048.501056 C 280.239956 1297.825981 667.435907 600.817302 1186.071286 24.23078 C 993.120796 501.338129 1226.215348 1058.945072 1586.86442 1425.447289 C 1948.160976 1791.949505 2419.52996 2024.285731 2844.280033 2314.215163 C 3269.677591 2604.144595 3673.708149 2991.589795 3776.010758 3496.184811 C 3595.36248 3464.770335 3415.361686 3432.701391 3235.360893 3401.286915 C 3902.270307 3778.915092 4372.344321 4485.740795 4463.639687 5246.887362 C 4257.739499 5184.05841 4051.839311 5121.229459 3845.939123 5057.746039 C 4362.632048 5525.036365 4720.043695 6165.106307 4846.303244 6850.334558 C 4972.562793 7535.562809 4866.375275 8261.36809 4549.10769 8881.149517 Z M 4549.10769 8881.149517 " stroke="#ffffff" stroke-width="10" stroke-opacity="1" stroke-miterlimit="10"/></g><g clip-path="url(#56a44c2e02)"><g clip-path="url(#7fdddba039)"><g clip-path="url(#748697cd59)"><path fill="#ffcc00" d="M 107.0625 213.558594 C 107.101562 213.550781 107.140625 213.542969 107.179688 213.53125 C 107.179688 213.53125 89.382812 233.109375 60.035156 213.128906 C 52.695312 208.132812 46.441406 201.746094 41.40625 194.445312 C 32.578125 181.652344 32.609375 167.71875 32.609375 167.71875 C 49.042969 190.269531 77.242188 176.488281 77.242188 176.488281 C 75.867188 176.332031 75.109375 176.238281 74.351562 176.160156 C 56.601562 174.34375 40.347656 168.921875 26.894531 157.296875 C 15.101562 147.105469 7.734375 134.339844 7.105469 118.210938 C 6.921875 113.589844 7.636719 108.898438 7.941406 104.242188 C 13.777344 143.117188 71.753906 129.222656 71.753906 129.222656 C 69.914062 128.992188 59.9375 125.992188 59.316406 125.804688 C 54.25 123.945312 49.4375 121.585938 45.183594 118.179688 C 40.921875 114.769531 37.230469 110.855469 36.070312 104.699219 C 41.640625 110.890625 43.929688 112.152344 52.050781 113.464844 C 56.828125 114.234375 61.65625 114.777344 66.417969 115.625 C 67.140625 115.753906 67.859375 115.894531 68.574219 116.039062 C 104.769531 124.703125 114.664062 150.519531 114.664062 150.519531 C 112.9375 133.949219 106.976562 122.613281 106.976562 122.613281 C 113.566406 126.082031 119.015625 130.324219 123.828125 135.390625 C 132.128906 144.125 137.859375 154.179688 138.679688 166.640625 C 139.171875 174.171875 137.46875 181.265625 132.914062 188.382812 C 132.902344 174.21875 131.351562 161.203125 121.25 151.164062 C 121.207031 155.246094 120.253906 162.503906 118.707031 168.273438 C 118.046875 170.730469 115.039062 171.71875 113.1875 170.066406 C 96.28125 154.964844 78.464844 145.511719 54.832031 150.746094 C 56.339844 151.667969 57.117188 152.164062 57.910156 152.628906 C 63.34375 155.820312 68.914062 158.8125 74.191406 162.234375 C 81.179688 166.761719 87.949219 171.628906 92.394531 178.921875 C 95.429688 183.902344 94.769531 188.003906 90.585938 192.335938 C 85.613281 197.484375 79.578125 199.890625 72.648438 200.1875 C 71.445312 200.238281 70.238281 200.273438 68.554688 200.335938 C 89.480469 217.179688 105.617188 213.898438 107.0625 213.558594 Z M 107.0625 213.558594 " fill-opacity="1" fill-rule="nonzero"/></g></g></g><g clip-path="url(#8a0ed971c2)"><g clip-path="url(#5db419e51c)"><g clip-path="url(#cf181a6214)"><path fill="#6a5acd" d="M 269.292969 214.101562 C 269.253906 214.089844 269.214844 214.082031 269.175781 214.074219 C 269.175781 214.074219 287.386719 233.265625 316.300781 212.667969 C 323.53125 207.515625 329.648438 200.996094 334.527344 193.589844 C 343.078125 180.609375 342.753906 166.683594 342.753906 166.683594 C 326.800781 189.578125 298.316406 176.402344 298.316406 176.402344 C 299.6875 176.214844 300.441406 176.105469 301.199219 176.011719 C 318.90625 173.816406 335.039062 168.050781 348.242188 156.140625 C 359.816406 145.699219 366.910156 132.78125 367.195312 116.640625 C 367.277344 112.019531 366.464844 107.34375 366.0625 102.695312 C 361.054688 141.683594 302.792969 129.027344 302.792969 129.027344 C 304.628906 128.761719 314.539062 125.546875 315.160156 125.347656 C 320.183594 123.382812 324.945312 120.921875 329.125 117.421875 C 333.3125 113.921875 336.917969 109.929688 337.945312 103.75 C 332.507812 110.058594 330.25 111.371094 322.160156 112.855469 C 317.398438 113.726562 312.582031 114.375 307.839844 115.320312 C 307.121094 115.464844 306.40625 115.621094 305.691406 115.78125 C 269.691406 125.214844 260.347656 151.234375 260.347656 151.234375 C 261.722656 134.632812 267.441406 123.171875 267.441406 123.171875 C 260.925781 126.78125 255.566406 131.136719 250.863281 136.304688 C 242.753906 145.21875 237.238281 155.386719 236.683594 167.863281 C 236.351562 175.40625 238.203125 182.464844 242.910156 189.480469 C 242.621094 175.320312 243.894531 162.273438 253.777344 152.019531 C 253.910156 156.101562 255.015625 163.339844 256.6875 169.070312 C 257.398438 171.515625 260.429688 172.441406 262.242188 170.75 C 278.824219 155.289062 296.433594 145.457031 320.171875 150.1875 C 318.683594 151.140625 317.921875 151.652344 317.136719 152.136719 C 311.769531 155.441406 306.265625 158.550781 301.0625 162.085938 C 294.171875 166.761719 287.507812 171.769531 283.21875 179.15625 C 280.289062 184.203125 281.039062 188.289062 285.3125 192.53125 C 290.394531 197.570312 296.480469 199.847656 303.414062 199.996094 C 304.617188 200.023438 305.824219 200.035156 307.511719 200.058594 C 286.949219 217.34375 270.746094 214.40625 269.292969 214.101562 Z M 269.292969 214.101562 " fill-opacity="1" fill-rule="nonzero"/></g></g></g></svg>